<svg xmlns="http://www.w3.org/2000/svg" width="1200" height="820" viewBox="0 0 1200 820" role="img" aria-label="Illustrative 2-bedroom floor plan">
  <rect width="1200" height="820" fill="#fffdf8"/>
  <rect x="70" y="70" width="1060" height="680" rx="18" fill="#ffffff" stroke="#d8cdaf" stroke-width="8"/>
  <path d="M70 308h1060M458 70v680M810 70v680M458 500h352" stroke="#d8cdaf" stroke-width="8"/>
  <rect x="110" y="110" width="300" height="160" rx="12" fill="#f8f3e7"/>
  <rect x="500" y="110" width="260" height="160" rx="12" fill="#f8f3e7"/>
  <rect x="850" y="110" width="240" height="160" rx="12" fill="#f8f3e7"/>
  <rect x="110" y="350" width="300" height="340" rx="12" fill="#fff8e8"/>
  <rect x="500" y="548" width="260" height="142" rx="12" fill="#fff8e8"/>
  <rect x="850" y="350" width="240" height="340" rx="12" fill="#fff8e8"/>
  <g fill="#1f2937" font-family="Arial, sans-serif" font-size="34" font-weight="700">
    <text x="135" y="200">Bedroom</text>
    <text x="525" y="200">Bedroom</text>
    <text x="875" y="200">Bath</text>
    <text x="135" y="525">Living / Dining</text>
    <text x="525" y="630">Kitchen</text>
    <text x="875" y="525">River Balcony</text>
  </g>
  <path d="M92 735h1016" stroke="#f5c84c" stroke-width="10" stroke-linecap="round"/>
  <text x="70" y="42" fill="#6b7280" font-family="Arial, sans-serif" font-size="26" font-weight="700" letter-spacing="6">ILLUSTRATIVE FLOOR PLAN</text>
</svg>
