<svg xmlns="http://www.w3.org/2000/svg" width="1200" height="820" viewBox="0 0 1200 820" role="img" aria-label="Illustrative 3D 2-bedroom floor plan">
  <defs>
    <linearGradient id="g" x1="0" x2="1" y1="0" y2="1">
      <stop stop-color="#fffdf8"/>
      <stop offset="1" stop-color="#f8edc8"/>
    </linearGradient>
  </defs>
  <rect width="1200" height="820" fill="url(#g)"/>
  <path d="M180 210 610 95l410 145-430 150Z" fill="#ffffff" stroke="#d8cdaf" stroke-width="7"/>
  <path d="M180 210v330l410 185V390Z" fill="#f7f1e3" stroke="#d8cdaf" stroke-width="7"/>
  <path d="M590 390v335l430-210V240Z" fill="#fff8e8" stroke="#d8cdaf" stroke-width="7"/>
  <path d="M430 145v355M760 150v390M590 390 590 95M315 248v350M880 285v300" stroke="#d8cdaf" stroke-width="6"/>
  <rect x="258" y="385" width="180" height="86" rx="10" fill="#f5c84c" opacity=".55"/>
  <rect x="690" y="340" width="185" height="96" rx="10" fill="#d8cdaf" opacity=".7"/>
  <rect x="475" y="520" width="160" height="84" rx="10" fill="#ffffff" opacity=".85"/>
  <g fill="#1f2937" font-family="Arial, sans-serif" font-size="28" font-weight="700">
    <text x="230" y="685">Living</text>
    <text x="675" y="650">Bedrooms</text>
    <text x="505" y="580">Kitchen</text>
  </g>
  <text x="70" y="62" fill="#6b7280" font-family="Arial, sans-serif" font-size="28" font-weight="700" letter-spacing="7">ILLUSTRATIVE 3D FLOOR PLAN</text>
</svg>
