<svg xmlns="http://www.w3.org/2000/svg" viewBox="0 0 1600 1000">
  <defs>
    <linearGradient id="sky" x1="0" x2="1" y1="0" y2="1">
      <stop offset="0" stop-color="#fff6df"/>
      <stop offset="0.48" stop-color="#f4dca7"/>
      <stop offset="1" stop-color="#9fb7c3"/>
    </linearGradient>
    <linearGradient id="glass" x1="0" x2="1">
      <stop offset="0" stop-color="#23384a"/>
      <stop offset="1" stop-color="#6f8791"/>
    </linearGradient>
    <linearGradient id="gold" x1="0" x2="1">
      <stop offset="0" stop-color="#f6d97b"/>
      <stop offset="1" stop-color="#b8892e"/>
    </linearGradient>
  </defs>
  <rect width="1600" height="1000" fill="url(#sky)"/>
  <circle cx="1260" cy="220" r="170" fill="#fff0bd" opacity=".68"/>
  <path d="M0 720 C230 650 420 705 635 645 C860 582 1040 650 1236 602 C1390 565 1490 590 1600 555 L1600 1000 L0 1000Z" fill="#d9c797" opacity=".45"/>
  <path d="M0 780 C260 710 505 790 810 705 C1070 632 1320 685 1600 612 L1600 1000 L0 1000Z" fill="#46616a" opacity=".23"/>
  <rect x="705" y="250" width="170" height="590" fill="url(#glass)"/>
  <rect x="905" y="180" width="205" height="660" fill="url(#glass)"/>
  <rect x="1145" y="315" width="150" height="525" fill="#334d59"/>
  <rect x="515" y="390" width="145" height="450" fill="#415d68"/>
  <rect x="1325" y="440" width="95" height="400" fill="#38515d"/>
  <g opacity=".55" fill="#fff8dc">
    <rect x="735" y="295" width="28" height="470"/>
    <rect x="795" y="295" width="28" height="470"/>
    <rect x="955" y="230" width="30" height="525"/>
    <rect x="1025" y="230" width="30" height="525"/>
    <rect x="1185" y="360" width="24" height="370"/>
    <rect x="555" y="430" width="22" height="330"/>
  </g>
  <rect x="880" y="155" width="255" height="34" fill="url(#gold)"/>
  <rect x="0" y="838" width="1600" height="162" fill="#102635" opacity=".42"/>
</svg>
