<svg xmlns="http://www.w3.org/2000/svg" viewBox="0 0 1600 1000">
  <defs>
    <linearGradient id="night" x1="0" x2="1" y1="0" y2="1">
      <stop offset="0" stop-color="#263b4b"/>
      <stop offset=".6" stop-color="#415866"/>
      <stop offset="1" stop-color="#d3b775"/>
    </linearGradient>
    <linearGradient id="warm" x1="0" x2="1">
      <stop offset="0" stop-color="#f8dfa0"/>
      <stop offset="1" stop-color="#f5c84c"/>
    </linearGradient>
  </defs>
  <rect width="1600" height="1000" fill="url(#night)"/>
  <circle cx="1290" cy="170" r="105" fill="#ffedbd" opacity=".72"/>
  <g fill="#172733">
    <rect x="135" y="420" width="130" height="365"/>
    <rect x="315" y="325" width="160" height="460"/>
    <rect x="550" y="250" width="190" height="535"/>
    <rect x="805" y="390" width="120" height="395"/>
    <rect x="1010" y="280" width="210" height="505"/>
    <rect x="1290" y="370" width="145" height="415"/>
  </g>
  <g fill="url(#warm)" opacity=".82">
    <rect x="170" y="465" width="18" height="260"/>
    <rect x="220" y="465" width="18" height="260"/>
    <rect x="355" y="375" width="20" height="335"/>
    <rect x="425" y="375" width="20" height="335"/>
    <rect x="600" y="305" width="22" height="390"/>
    <rect x="690" y="305" width="22" height="390"/>
    <rect x="1065" y="335" width="24" height="360"/>
    <rect x="1150" y="335" width="24" height="360"/>
    <rect x="1335" y="420" width="18" height="285"/>
  </g>
  <path d="M0 790 C250 735 512 805 760 760 C1040 710 1280 740 1600 690 L1600 1000 L0 1000Z" fill="#0f202b" opacity=".5"/>
  <path d="M80 835 C390 792 662 842 915 805 C1180 766 1370 786 1535 748" stroke="#f9e4a4" stroke-width="8" fill="none" opacity=".48"/>
</svg>
