<svg xmlns="http://www.w3.org/2000/svg" viewBox="0 0 1600 1000">
  <defs>
    <linearGradient id="wall" x1="0" x2="1" y1="0" y2="1">
      <stop offset="0" stop-color="#fffdf8"/>
      <stop offset="1" stop-color="#ead8b6"/>
    </linearGradient>
    <linearGradient id="window" x1="0" x2="1" y1="0" y2="1">
      <stop offset="0" stop-color="#8aa5ad"/>
      <stop offset="1" stop-color="#ffe7ad"/>
    </linearGradient>
  </defs>
  <rect width="1600" height="1000" fill="url(#wall)"/>
  <rect x="845" y="95" width="585" height="585" rx="4" fill="url(#window)"/>
  <g fill="#314c58" opacity=".58">
    <rect x="930" y="260" width="72" height="300"/>
    <rect x="1050" y="210" width="88" height="350"/>
    <rect x="1195" y="300" width="64" height="260"/>
    <rect x="1300" y="250" width="55" height="310"/>
  </g>
  <rect x="90" y="710" width="1420" height="190" fill="#c7a778" opacity=".55"/>
  <rect x="255" y="520" width="515" height="220" rx="28" fill="#f7efe3"/>
  <rect x="305" y="455" width="430" height="145" rx="24" fill="#fffaf0"/>
  <rect x="220" y="720" width="595" height="28" fill="#9c7b53"/>
  <rect x="910" y="710" width="305" height="38" fill="#8b6c47"/>
  <rect x="955" y="515" width="220" height="205" rx="8" fill="#eee2ce"/>
  <circle cx="1070" cy="618" r="62" fill="#d5b568" opacity=".75"/>
  <rect x="120" y="130" width="570" height="315" fill="#f0dfc3"/>
  <rect x="155" y="165" width="500" height="245" fill="#fff8e9"/>
  <path d="M155 410 L655 165" stroke="#d8bd7e" stroke-width="10" opacity=".7"/>
  <path d="M92 902 L1508 902" stroke="#8d7152" stroke-width="20" opacity=".28"/>
</svg>
