<svg xmlns="http://www.w3.org/2000/svg" viewBox="0 0 1600 1000">
  <defs>
    <linearGradient id="bg" x1="0" x2="1" y1="0" y2="1">
      <stop offset="0" stop-color="#fffdf8"/>
      <stop offset=".45" stop-color="#f4dfb8"/>
      <stop offset="1" stop-color="#6f8d9b"/>
    </linearGradient>
    <linearGradient id="river" x1="0" x2="1">
      <stop offset="0" stop-color="#617f86"/>
      <stop offset="1" stop-color="#d6c28e"/>
    </linearGradient>
  </defs>
  <rect width="1600" height="1000" fill="url(#bg)"/>
  <path d="M0 650 C260 560 520 710 770 610 C1010 515 1260 560 1600 455 L1600 1000 L0 1000Z" fill="url(#river)" opacity=".76"/>
  <path d="M0 740 C315 655 535 760 820 690 C1065 630 1280 664 1600 560 L1600 1000 L0 1000Z" fill="#fff4cf" opacity=".32"/>
  <g fill="#304b56">
    <rect x="220" y="390" width="105" height="360"/>
    <rect x="360" y="335" width="130" height="415"/>
    <rect x="535" y="275" width="155" height="475"/>
    <rect x="735" y="365" width="110" height="385"/>
    <rect x="980" y="250" width="180" height="500"/>
    <rect x="1210" y="330" width="120" height="420"/>
  </g>
  <g fill="#f9e1a1" opacity=".6">
    <rect x="248" y="430" width="12" height="260"/>
    <rect x="286" y="430" width="12" height="260"/>
    <rect x="395" y="370" width="16" height="315"/>
    <rect x="455" y="370" width="16" height="315"/>
    <rect x="580" y="315" width="18" height="345"/>
    <rect x="650" y="315" width="18" height="345"/>
    <rect x="1035" y="300" width="20" height="350"/>
    <rect x="1105" y="300" width="20" height="350"/>
  </g>
  <circle cx="1355" cy="185" r="120" fill="#f5c84c" opacity=".35"/>
  <path d="M118 802 C410 770 642 814 910 772 C1130 738 1378 760 1532 716" fill="none" stroke="#fff7d8" stroke-width="9" opacity=".7"/>
</svg>
